<svg width="80" height="96" viewBox="0 0 80 96" fill="none" xmlns="http://www.w3.org/2000/svg">
<g clip-path="url(#clip0_2161_24961)">
<g clip-path="url(#clip1_2161_24961)">
<path d="M35.7551 84.3938C35.4575 84.3938 35.1859 84.2777 34.9789 84.0843L31.1627 80.345C29.7786 78.9653 28.3815 77.5599 27.0361 76.1673L26.4669 75.5871L25.4579 74.5297L24.9405 74.0011L22.8707 71.8349L21.8358 70.726L21.3313 70.1715L20.8268 69.63C20.6974 69.4881 20.3223 69.0755 20.3223 69.0755C20.18 68.9208 19.8436 68.5468 19.8436 68.5468C19.7013 68.3921 19.4038 68.0569 19.3909 68.0569C12.677 60.5653 8.52452 54.9564 7.08861 51.3847L7.02393 51.2171C6.97219 51.0881 6.94632 51.0366 6.8687 50.8174C6.8687 50.8045 6.85576 50.7916 6.85576 50.7658C6.85576 50.7658 6.81695 50.6626 6.79108 50.5982C6.77815 50.5595 6.76521 50.5337 6.75227 50.495C6.75227 50.4821 6.75227 50.4692 6.73934 50.4692C5.4716 47.1554 4.57901 43.2485 4.20386 39.4834C3.71229 34.5191 4.11331 29.8385 5.36811 25.5834C5.36811 25.5706 5.38105 25.5577 5.38105 25.5448L5.44573 25.3385C6.05372 23.2367 6.97219 21.0963 8.18818 18.9687C10.5814 14.8942 13.1945 12.3024 14.9667 10.8583C16.6355 9.49152 18.3042 8.52445 19.4426 8.26657C19.4944 8.25368 19.5332 8.22789 19.572 8.2021C23.6468 4.50147 28.3556 3.94702 30.8005 3.94702C31.2145 3.94702 31.6284 3.95991 32.0036 3.9986C32.0165 3.9986 32.0165 3.9986 32.0295 3.9986C32.0812 3.9986 32.1459 3.9857 32.1847 3.94702C34.6684 2.19341 38.187 2 39.5712 2C39.7394 2 39.8687 2 39.9722 2H39.9852C40.0887 2 40.218 2 40.3862 2C41.7833 2 45.289 2.19341 47.7727 3.93413C47.8245 3.97281 47.8762 3.9857 47.9279 3.9857C47.9409 3.9857 47.9409 3.9857 47.9538 3.9857C48.329 3.95991 48.7429 3.93413 49.1569 3.93413C51.6018 3.93413 56.3235 4.48858 60.3854 8.1892C60.4242 8.21499 60.463 8.24078 60.5148 8.25368C61.692 8.53735 63.3219 9.47862 64.9907 10.8454C66.7629 12.3024 69.3631 14.8813 71.7563 18.9558C72.9981 21.1221 73.9295 23.2754 74.5246 25.3514C74.5375 25.39 74.5634 25.4674 74.5634 25.4674C74.5634 25.4674 74.5893 25.5577 74.6022 25.5706C74.6281 25.6737 74.6669 25.7769 74.6928 25.88L74.7575 26.0992C74.7833 26.1766 74.7963 26.2539 74.8221 26.3184C74.8609 26.4603 74.8998 26.615 74.9386 26.7568L74.9644 26.86C75.0032 26.9889 75.0291 27.1179 75.0679 27.2468C75.0809 27.3242 75.1067 27.4015 75.1197 27.4789L75.1455 27.5692C75.1844 27.7755 75.2361 27.9689 75.2749 28.1752C75.2878 28.2139 75.3137 28.3557 75.3137 28.3557C75.3655 28.6394 75.4172 28.8715 75.456 29.0907L75.4689 29.1293C75.7665 30.8314 75.9346 32.5979 75.9864 34.3773V34.4031C75.9993 34.6867 75.9993 34.9704 75.9993 35.2283C76.0381 42.4748 74.0589 48.3675 73.2181 50.5595C73.1793 50.6497 73.1534 50.7271 73.1275 50.7916C73.0499 51.0108 73.024 51.0623 72.9723 51.1913L72.9076 51.346C72.8817 51.4105 72.8558 51.475 72.83 51.5394C72.83 51.5394 72.7653 51.7071 72.7524 51.7328C72.7394 51.7586 72.7006 51.836 72.6877 51.8747C72.6489 51.9649 72.6101 52.0423 72.5713 52.1197C72.5454 52.1841 72.5195 52.2357 72.4807 52.3002C72.4678 52.3131 72.3901 52.4936 72.3772 52.5065C72.3384 52.5968 72.2867 52.687 72.2478 52.7773L72.1961 52.8804C71.9633 53.3188 71.7045 53.7959 71.407 54.273L71.3941 54.2859C69.4407 57.5352 66.0773 61.8419 61.3945 67.1156L61.3686 67.1414C61.2004 67.3348 61.0193 67.5282 60.8382 67.7345L60.8253 67.7474C60.6571 67.9408 60.476 68.1342 60.3078 68.3276L60.2949 68.3405C60.1138 68.534 59.9456 68.7274 59.7645 68.9208L59.7386 68.9466C59.5575 69.14 59.3894 69.3334 59.2082 69.5268L59.1824 69.5526C59.0142 69.7331 58.846 69.9265 58.6649 70.1199L58.6391 70.1457C58.4579 70.3391 58.2898 70.5326 58.1087 70.7131L58.0699 70.7517C57.9017 70.9323 57.7206 71.1257 57.5524 71.3191L57.5395 71.3449C57.3584 71.5383 57.1902 71.7188 57.0091 71.9122C57.0091 71.9122 56.634 72.3119 56.4528 72.4925L55.8837 73.0856C55.7026 73.279 55.3403 73.6658 55.3403 73.6658C50.8903 78.3464 46.9448 82.2018 44.9785 84.0843C44.7715 84.2906 44.4869 84.3938 44.2023 84.3938H35.7551Z" fill="white"/>
<path d="M37.6567 93.0587C37.3203 93.0587 37.0228 92.8395 36.9452 92.5171L35.7421 88.2363C35.3799 88.1718 35.1082 87.8623 35.1082 87.4884V86.9597C35.1082 86.5342 35.4446 86.199 35.8715 86.199H44.267C44.6939 86.199 45.0303 86.5342 45.0303 86.9597V87.4884C45.0303 87.8752 44.7457 88.1847 44.3834 88.2363L43.1804 92.5171C43.0898 92.8395 42.7923 93.0587 42.4689 93.0587H37.6567Z" fill="white"/>
<path d="M49.0663 92.4398C47.4234 92.4398 46.1428 91.1632 46.1428 89.5515C46.1428 87.9655 47.4493 86.6632 49.0663 86.6632C50.6833 86.6632 51.9769 87.9526 51.9769 89.5515C51.9769 91.1761 50.6963 92.4398 49.0663 92.4398Z" fill="white"/>
<path d="M49.0793 86.9468C50.541 86.9468 51.7053 88.1073 51.7053 89.5515C51.7053 91.0214 50.541 92.169 49.0793 92.169C47.6175 92.169 46.4403 91.0214 46.4403 89.5515C46.4274 88.1073 47.6045 86.9468 49.0793 86.9468Z" fill="white"/>
<path d="M7.91653 50.2242C8.02001 50.5079 8.02001 50.495 8.1235 50.7658C9.32656 53.7959 12.5218 58.167 16.4285 62.8218C21.0855 68.405 26.6998 74.2719 31.0204 78.6172C32.6245 80.2419 34.0992 81.6989 35.3411 82.8981L35.354 82.911C35.4446 83.0012 35.5351 83.0915 35.6257 83.1817H35.6774L39.8558 83.1946H39.8687L43.8272 83.2075H44.0859C50.8774 76.7089 65.1847 62.3576 70.4109 53.7443C70.6955 53.2801 70.9413 52.8288 71.1742 52.3904C71.2 52.3518 71.2259 52.3002 71.2388 52.2615C71.2776 52.197 71.3164 52.1197 71.3423 52.0552C71.3682 51.9907 71.407 51.9391 71.4329 51.8747C71.4587 51.8102 71.4846 51.7586 71.5105 51.6942C71.5493 51.6168 71.5752 51.5523 71.614 51.475C71.6399 51.4363 71.6528 51.3847 71.6787 51.346C71.7304 51.23 71.7822 51.1139 71.821 50.9979C71.8339 50.9592 71.8468 50.9334 71.8598 50.9076C71.8986 50.8174 71.9245 50.7658 71.9503 50.7013C72.0021 50.5595 72.0279 50.4434 72.0279 50.4434C74.2659 44.77 76.2839 34.9575 73.4638 25.6995C73.4638 25.7124 66.6853 7.35108 40.1275 7.35108C16.4285 6.52586 6.63585 25.5577 6.63585 25.5577V26.0347L6.51942 25.9058C3.82871 35.0091 5.75619 44.6153 7.91653 50.2242C7.91653 50.2113 7.91653 50.2113 7.91653 50.2242Z" fill="white"/>
<path d="M7.91653 50.2242C8.02001 50.5079 8.02001 50.495 8.1235 50.7658C9.32656 53.7959 12.5218 58.167 16.4285 62.8218C21.0855 68.405 26.6998 74.2719 31.0204 78.6172C32.6245 80.2419 34.0992 81.686 35.3411 82.8981C35.4446 83.0012 35.5351 83.0915 35.6386 83.1817H35.6904L37.9025 83.1946C25.0181 55.2143 30.5935 17.0475 32.2106 7.85396C14.2294 10.8196 6.63585 25.5577 6.63585 25.5577V26.0347L6.51942 25.9058C3.82871 35.0091 5.75619 44.6153 7.91653 50.2242C7.91653 50.2113 7.91653 50.2113 7.91653 50.2242Z" fill="url(#paint0_linear_2161_24961)"/>
<path d="M47.721 7.82817C65.7022 10.8196 73.2827 25.5577 73.2827 25.5577V26.0347L73.3992 25.9058C76.0899 35.0091 74.1624 44.6152 72.0021 50.2113C72.0021 50.2113 72.0021 50.2113 72.015 50.2242C71.9115 50.5079 71.9115 50.495 71.808 50.7658C70.605 53.7959 67.4097 58.167 63.503 62.8218C58.846 68.405 53.2318 74.2719 48.9111 78.6172C47.1777 80.3708 45.5994 81.9181 44.3058 83.1817H44.2541L42.042 83.1946C54.9134 55.2014 49.338 17.0217 47.721 7.82817Z" fill="url(#paint1_linear_2161_24961)"/>
<path d="M61.8472 51.2429C56.2329 65.1944 46.8154 79.6874 44.8103 82.7047C48.9499 78.6946 55.418 72.183 61.0452 65.8133C61.9248 64.8075 62.7786 63.8147 63.6065 62.8218C67.3321 58.3862 70.398 54.2085 71.7304 51.2042C71.7563 51.1268 71.7951 51.0623 71.821 50.985C71.8598 50.8689 71.8856 50.8045 71.9115 50.7529C71.8986 50.7916 71.8856 50.8045 71.9244 50.6884C71.9244 50.6884 71.9762 50.5853 72.1056 50.2242C74.2659 44.6281 76.1934 35.022 73.5027 25.9187L73.3862 25.5706C73.3862 25.5706 69.4666 17.9501 60.5795 12.5603C62.4552 19.2137 66.9958 38.4518 61.8472 51.2429Z" fill="url(#paint2_linear_2161_24961)"/>
<path d="M7.83891 50.2242C7.9424 50.5079 7.9424 50.495 8.04589 50.7658C9.24895 53.7959 12.4442 58.167 16.3509 62.8218C17.5927 64.3176 18.9122 65.8262 20.2446 67.3219C25.5485 73.2145 31.3568 79.0427 35.1729 82.7433C33.2196 79.8035 23.7503 65.2588 18.1231 51.2558C12.9745 38.4776 17.5151 19.2266 19.365 12.5603C10.4779 17.9501 6.55823 25.5706 6.55823 25.5706L6.44181 25.9187C3.75109 35.0091 5.67858 44.6153 7.83891 50.2242C7.83891 50.2113 7.83891 50.2113 7.83891 50.2242Z" fill="url(#paint3_linear_2161_24961)"/>
<path d="M39.9852 3.12179C39.1573 3.09601 34.9271 3.07022 32.4305 5.15907C32.4305 5.15907 25.5096 4.03728 20.0118 9.2981C18.7052 9.28521 13.3756 12.3153 9.17133 19.5232C8.03295 21.5218 7.12742 23.572 6.51942 25.6737C7.34734 24.5777 10.5426 20.2195 17.3081 20.8255C17.7738 20.4645 21.991 15.887 30.7358 17.473C31.926 16.2223 36.3242 14.8942 39.9852 14.8555C43.6461 14.9071 48.0314 16.2352 49.2345 17.473C57.9793 15.887 62.1965 20.4516 62.6622 20.8255C69.4148 20.2195 72.623 24.5648 73.4638 25.6608C72.8688 23.5591 71.9374 21.5089 70.799 19.5103C66.5818 12.2896 61.2651 9.27232 59.9585 9.28521C54.4736 4.01149 47.5399 5.14618 47.5399 5.14618C45.0432 3.07022 40.8001 3.09601 39.9852 3.12179Z" fill="#DC1C2E"/>
<path d="M32.4305 5.15907C32.4305 5.15907 25.5096 4.03728 20.0118 9.2981C18.7052 9.28521 13.3756 12.3153 9.17133 19.5232C8.03295 21.5218 7.12742 23.572 6.51942 25.6737C7.34734 24.5777 10.5426 20.2195 17.3081 20.8255C17.7738 20.4645 21.9781 15.9128 30.697 17.473C31.5249 10.4844 32.4305 5.15907 32.4305 5.15907Z" fill="#C51828"/>
<path d="M17.3081 20.8384C17.3211 20.8255 17.3081 20.8255 17.3081 20.8384C18.5759 14.2753 20.0247 9.311 20.0247 9.311C18.7182 9.2981 13.3885 12.3282 9.18427 19.5361C8.04589 21.5347 7.14036 23.5849 6.53236 25.6866C7.34734 24.5777 10.5426 20.2195 17.3081 20.8384Z" fill="#A51220"/>
<path d="M47.5269 5.15907C47.5269 5.15907 54.4478 4.03728 59.9456 9.2981C61.2522 9.28521 66.5818 12.3153 70.7861 19.5232C71.9245 21.5218 72.8558 23.572 73.4509 25.6737C72.623 24.5777 69.4148 20.2195 62.6493 20.8384C62.1836 20.4774 57.9793 15.9257 49.2604 17.4859C48.4325 10.4844 47.5269 5.15907 47.5269 5.15907Z" fill="#C51828"/>
<path d="M62.6622 20.8384C62.6493 20.8255 62.6493 20.8255 62.6622 20.8384C61.3944 14.2753 59.9456 9.311 59.9456 9.311C61.2521 9.2981 66.5818 12.3282 70.7861 19.5361C71.9245 21.5347 72.8558 23.5849 73.4509 25.6866C72.623 24.5777 69.4148 20.2195 62.6622 20.8384Z" fill="#A51220"/>
<path d="M40.1016 87.3079H40.011H36.2337L36.2854 87.4239L37.6567 92.3237H40.1016V87.3079Z" fill="#404041"/>
<path d="M40.011 87.3079H43.8789L43.8272 87.4239L42.456 92.3237H40.011V87.3079Z" fill="#626366"/>
<path d="M44.267 87.5013H35.8715C35.8585 87.5013 35.8585 87.4884 35.8585 87.4884V86.9597C35.8585 86.9468 35.8715 86.9468 35.8715 86.9468H44.267C44.28 86.9468 44.28 86.9597 44.28 86.9597V87.4884C44.28 87.5013 44.28 87.5013 44.267 87.5013Z" fill="#626366"/>
<path d="M43.7625 87.6431L43.8013 87.5013H36.2984L36.3501 87.6431H43.7625Z" fill="#404041"/>
<path d="M63.1926 46.5881C63.0891 46.5881 58.8202 42.1396 50.3082 42.9132C49.8425 42.6295 46.6861 40.9662 39.9852 40.6052C33.8276 40.7341 30.1408 42.6295 29.6621 42.9132C21.1502 42.1396 16.8813 46.5881 16.7778 46.5881C11.668 46.4462 8.22699 50.0179 7.91653 50.4434C8.02001 50.7271 8.02001 50.7142 8.1235 50.985C11.3317 58.9149 28.2133 76.0126 35.7551 83.2849H44.2153C51.757 76.0126 68.6387 58.9149 71.8468 50.9721C71.9503 50.7142 71.9503 50.7142 72.0538 50.4305C71.7433 50.0179 68.3023 46.4462 63.1926 46.5881Z" fill="#003DA5"/>
<path d="M50.2953 42.9132C58.8072 42.1396 63.0761 46.5881 63.1796 46.5881C68.2894 46.4462 71.7304 50.0179 72.0409 50.4434C71.9374 50.7271 71.9374 50.7142 71.8339 50.985C68.6257 58.9149 51.757 76.0126 44.2023 83.2849H41.8868C47.7598 70.726 49.8813 56.0653 50.2953 42.9132Z" fill="#00378C"/>
<path d="M63.1926 46.5881C68.3023 46.4462 71.7433 50.0179 72.0538 50.4434C71.9503 50.7271 71.9503 50.7142 71.8468 50.985C68.6257 58.9149 51.757 76.0126 44.2023 83.2849C44.2023 83.2849 55.3792 66.9738 61.7308 51.3202C62.3517 49.8245 62.8304 48.2256 63.1926 46.5881Z" fill="#002D6F"/>
<path d="M29.6621 42.9132C21.1502 42.1396 16.8813 46.5881 16.7778 46.5881C11.668 46.4462 8.22699 50.0179 7.91653 50.4434C8.02001 50.7271 8.02001 50.7142 8.1235 50.985C11.3317 58.9149 28.2133 76.0126 35.7551 83.2849H38.0706C32.2106 70.726 30.0761 56.0653 29.6621 42.9132Z" fill="#00378C"/>
<path d="M16.7778 46.5881C11.668 46.4462 8.22699 50.0179 7.91653 50.4434C8.02001 50.7271 8.02001 50.7142 8.1235 50.985C11.3317 58.9149 28.2133 76.0126 35.7551 83.2849C35.7551 83.2849 24.5782 66.9738 18.2266 51.3202C17.6057 49.8245 17.14 48.2256 16.7778 46.5881Z" fill="#002D6F"/>
<path d="M21.3054 30.0835C21.3054 30.0577 21.3054 30.0448 21.3054 30.0319C21.2666 29.1165 20.9432 28.4331 20.374 28.0591C19.7272 27.6465 18.7829 27.6078 17.6445 27.9818C16.4026 28.3944 15.1737 28.8328 13.9706 29.3228C14.1388 32.4818 14.3199 35.628 14.4881 38.7871C15.303 38.4647 15.7041 38.31 16.532 38.0134C16.4673 36.7756 16.4414 36.1567 16.3767 34.9188C16.8554 34.7512 17.0882 34.661 17.5669 34.5062C18.3301 35.4991 18.7182 36.0019 19.4814 37.0206C20.4258 36.724 20.9044 36.5822 21.8617 36.3243C21.1243 35.3443 20.3869 34.3644 19.6367 33.3973C20.6845 32.6237 21.3701 31.4245 21.3054 30.0835ZM19.1968 30.7411V30.754C19.2356 31.6179 18.6794 32.3013 17.7221 32.6237C17.1529 32.8171 16.8554 32.9202 16.2862 33.1265C16.2345 32.0176 16.2086 31.4761 16.1439 30.3672C16.7002 30.1609 16.9847 30.0706 17.541 29.8772C18.5759 29.542 19.158 29.8514 19.1968 30.7411Z" fill="#003DA5"/>
<path d="M51.8993 25.1322C50.6057 28.1623 49.338 31.2053 48.0961 34.2483C48.9628 34.3386 49.3897 34.3902 50.2435 34.5191C50.554 33.7326 50.6963 33.3457 51.0067 32.5721C52.3521 32.7784 53.0248 32.8944 54.3572 33.1523C54.6289 34.0291 54.7582 34.4675 55.0299 35.3572C55.9095 35.5378 56.3364 35.6409 57.2031 35.8472C56.1424 32.3787 55.0557 28.9359 53.9303 25.4932C53.1283 25.3385 52.7143 25.2611 51.8993 25.1322ZM53.7621 31.2182C52.9472 31.0635 52.5332 30.9861 51.7053 30.8572C52.1451 29.7483 52.365 29.2067 52.8178 28.1107C53.2059 29.3485 53.387 29.9675 53.7621 31.2182Z" fill="#003DA5"/>
<path d="M63.8523 32.8816C64.8484 31.6695 65.8445 30.4703 66.8664 29.2712C65.948 28.9101 65.4823 28.7425 64.5509 28.4073C63.8264 29.3743 63.4642 29.8643 62.7527 30.8572C62.2612 29.6838 61.7567 28.5104 61.2521 27.3371C60.2819 27.0534 59.8033 26.9115 58.8331 26.6537C59.7127 28.4717 60.5924 30.2898 61.4462 32.1208C60.3984 33.4489 59.3635 34.7899 58.3545 36.1309C59.2859 36.3759 59.7516 36.5048 60.67 36.7756C61.4203 35.7054 61.8084 35.1767 62.5716 34.1323C63.102 35.383 63.6324 36.6467 64.1498 37.9103C65.0812 38.2455 65.5469 38.4132 66.4783 38.7871C65.6116 36.8014 64.7449 34.8415 63.8523 32.8816Z" fill="#003DA5"/>
<path d="M26.1823 33.436C26.1565 32.6237 26.1435 32.224 26.1176 31.4116C27.3854 31.1537 28.6661 30.9216 29.9467 30.7282C29.9338 29.9933 29.9209 29.6193 29.9079 28.8715C28.6273 29.0649 27.3336 29.2841 26.0659 29.5549C26.04 28.7683 26.0271 28.3815 26.0012 27.5949C27.463 27.3113 28.9118 27.0534 30.3866 26.8342C30.3736 26.0992 30.3607 25.7253 30.3478 24.9774C28.1486 25.3127 25.9754 25.7253 23.815 26.2153C23.9185 29.3872 24.0349 32.5721 24.1384 35.7441C25.445 35.4346 26.7774 35.1509 28.1098 34.9188C28.472 34.1065 28.6661 33.7068 29.0283 32.9073C27.8899 33.1008 27.3207 33.2039 26.1823 33.436Z" fill="#003DA5"/>
<path d="M44.2412 24.3714C43.4909 25.3642 42.7535 26.3829 42.0161 27.3886C41.2788 26.3442 40.5414 25.2998 39.7911 24.2811C39.7782 24.2811 39.7782 24.2811 39.7653 24.2811C39.015 25.6866 38.2776 27.0921 37.5402 28.5104C37.5532 30.3027 37.5661 32.1079 37.579 33.9002C38.4199 33.8615 38.8339 33.8486 39.6618 33.8486C39.6618 31.8758 39.6488 29.903 39.6488 27.9302C40.4121 28.9101 41.1753 29.8901 41.9256 30.8701C41.9256 30.883 41.9385 30.883 41.9385 30.8959C41.9773 30.8959 41.9903 30.8959 42.0291 30.8959C42.7923 29.9288 43.5685 28.9617 44.3446 28.0076C44.3317 29.9933 44.3188 31.979 44.2929 33.9518C45.1337 34.0033 45.5477 34.0291 46.3885 34.0936C46.4274 30.9087 46.4662 27.7239 46.505 24.539C45.6124 24.4488 45.1467 24.423 44.2412 24.3714Z" fill="#003DA5"/>
<path d="M32.6504 34.2741C34.2803 30.9087 35.9491 27.582 37.6696 24.2682C36.6088 24.3069 36.0785 24.3456 35.0177 24.423C33.3231 27.8012 31.6672 31.1924 30.0632 34.6223C31.0981 34.4546 31.6155 34.3902 32.6504 34.2741Z" fill="#DC1C2E"/>
<path d="M49.0793 86.9468C50.541 86.9468 51.7053 88.1073 51.7053 89.5515C51.7053 91.0214 50.541 92.169 49.0793 92.169C47.6175 92.169 46.4403 91.0214 46.4403 89.5515C46.4274 88.1073 47.6045 86.9468 49.0793 86.9468ZM49.0663 87.3595C47.8891 87.3595 46.9319 88.3394 46.9319 89.5515C46.9319 90.7893 47.8891 91.7564 49.0793 91.7564C50.2694 91.7693 51.2137 90.7764 51.2137 89.5515C51.2137 88.3394 50.2694 87.3595 49.0663 87.3595ZM48.5618 91.073H48.0832V88.1718C48.329 88.1331 48.5618 88.1073 48.924 88.1073C49.3768 88.1073 49.6743 88.1976 49.8554 88.3265C50.0365 88.4555 50.1271 88.6489 50.1271 88.9325C50.1271 89.3194 49.8684 89.5515 49.545 89.6417V89.6675C49.8037 89.7191 49.9848 89.9383 50.0365 90.3767C50.1141 90.828 50.1788 91.0085 50.2306 91.0988H49.7261C49.6614 91.0085 49.5838 90.7377 49.5191 90.3509C49.4415 89.977 49.2604 89.848 48.8723 89.848H48.5359V91.073H48.5618ZM48.5618 89.4612H48.9111C49.2992 89.4612 49.6355 89.3194 49.6355 88.9712C49.6355 88.7133 49.4415 88.4555 48.9111 88.4555C48.7559 88.4555 48.6524 88.4684 48.5618 88.4812V89.4612Z" fill="#626366"/>
</g>
</g>
<defs>
<linearGradient id="paint0_linear_2161_24961" x1="75.974" y1="47.5054" x2="4.00358" y2="47.5054" gradientUnits="userSpaceOnUse">
<stop stop-color="white"/>
<stop offset="0.6214" stop-color="#FDFDFE"/>
<stop offset="0.845" stop-color="#F6F8FC"/>
<stop offset="1" stop-color="#EBEFF8"/>
</linearGradient>
<linearGradient id="paint1_linear_2161_24961" x1="3.96568" y1="47.521" x2="75.9931" y2="47.521" gradientUnits="userSpaceOnUse">
<stop stop-color="white"/>
<stop offset="0.6214" stop-color="#FDFDFE"/>
<stop offset="0.845" stop-color="#F6F8FC"/>
<stop offset="1" stop-color="#EBEFF8"/>
</linearGradient>
<linearGradient id="paint2_linear_2161_24961" x1="81.5812" y1="40.7938" x2="-3.39096" y2="74.2843" gradientUnits="userSpaceOnUse">
<stop stop-color="#EBEFF8"/>
<stop offset="0.155" stop-color="#F6F8FC"/>
<stop offset="0.3786" stop-color="#FDFDFE"/>
<stop offset="1" stop-color="white"/>
</linearGradient>
<linearGradient id="paint3_linear_2161_24961" x1="58.0373" y1="47.3983" x2="14.7104" y2="64.4623" gradientUnits="userSpaceOnUse">
<stop stop-color="white"/>
<stop offset="0.6214" stop-color="#FDFDFE"/>
<stop offset="0.845" stop-color="#F6F8FC"/>
<stop offset="1" stop-color="#EBEFF8"/>
</linearGradient>
<clipPath id="clip0_2161_24961">
<rect width="96" height="80" fill="white" transform="translate(80) rotate(90)"/>
</clipPath>
<clipPath id="clip1_2161_24961">
<rect width="71.9999" height="91.0587" fill="white" transform="translate(4 2)"/>
</clipPath>
</defs>
</svg>
